PathFileType	4	(X/Y/Z)	pose_F01_0-70.trc
DataRate	CameraRate	NumFrames	NumMarkers	Units	OrigDataRate	OrigDataStartFrame	OrigNumFrames
30	30	11	21	m	30	0	70
Frame#	Time	CHip			RHip			RKnee			RAnkle			RBigToe			RSmallToe			RHeel			LHip			LKnee			LAnkle			LBigToe			LSmallToe			LHeel			Neck			Nose			RShoulder			RElbow			RWrist			LShoulder			LElbow			LWrist			
		X1	Y1	Z1	X2	Y2	Z2	X3	Y3	Z3	X4	Y4	Z4	X5	Y5	Z5	X6	Y6	Z6	X7	Y7	Z7	X8	Y8	Z8	X9	Y9	Z9	X10	Y10	Z10	X11	Y11	Z11	X12	Y12	Z12	X13	Y13	Z13	X14	Y14	Z14	X15	Y15	Z15	X16	Y16	Z16	X17	Y17	Z17	X18	Y18	Z18	X19	Y19	Z19	X20	Y20	Z20	X21	Y21	Z21	
0	0.0	-0.26136298733302	1.844338967917952	-0.48727648064767526	-0.28215037734128856	1.8371591672795533	-0.41927897671321174																-0.24465489530132684	1.8437498177576344	-0.540494955219232	-0.24223305329871897	1.724510667525312	-0.5064404888562668													-0.2697453988689367	1.986013657842677	-0.5351882962828342	-0.2538996675628924	2.057451241782941	-0.5195243176763216	-0.2854259022083505	1.9836684471339354	-0.448924767801005	-0.292914269749327	1.8984854663721606	-0.3664996083353217	-0.2823654957477742	1.806461828752717	-0.3143805212098099	-0.24575473085564367	1.987487338219753	-0.6278718683744595	-0.23362622594902968	1.9055196035202775	-0.6356278044415087	-0.22226169218162087	1.8288081876918965	-0.5983486235751241
1	0.03333333333333333	-0.2665776275201693	1.8354444684616573	-0.4767302108935321	-0.2835628029371999	1.8319494317335916	-0.41296443296533236																-0.2511920122375659	1.8366584889033941	-0.533135842094676	-0.2451545781591037	1.7178149728110996	-0.4977870531082878													-0.27089892176436975	1.9867744616496295	-0.5216775066997144	-0.2559149103226232	2.0573677801259493	-0.5088483940991084	-0.289921768711373	1.9845125307115563	-0.43127693897778174	-0.2964078054941069	1.9082043465224747	-0.3550970918417597	-0.2810150944565829	1.8448952035280621	-0.3448529995829105	-0.24727487562765985	1.9886822363693084	-0.6142666698045152	-0.23505597956968427	1.9086616410306168	-0.6220210490531172	-0.22190885140271197	1.837571056191713	-0.5612599665738319
2	0.06666666666666667	-0.27179226770731857	1.8265499690053626	-0.466183941139389	-0.2849752285331112	1.8267396961876299	-0.406649889217453																-0.2577291291738049	1.8295671600491539	-0.5257767289701201	-0.2480761030194884	1.7111192780968874	-0.48913361736030875													-0.2720524446598028	1.9875352654565819	-0.5081667171165946	-0.257930153082354	2.0572843184689575	-0.49817247052189534	-0.29441763521439546	1.9853566142891772	-0.4136291101545585	-0.2999013412388868	1.9179232266727888	-0.3436945753481977	-0.2796646931653916	1.8833285783034073	-0.37532547795601107	-0.24879502039967602	1.9898771345188637	-0.6006614712345708	-0.23648573319033886	1.911803678540956	-0.6084142936647257	-0.22155601062380306	1.8463339246915293	-0.5241713095725398
3	0.1	-0.275013021176125	1.8289838194276775	-0.4588346084052046	-0.2878247695034983	1.8275446100039792	-0.39916696116662204																-0.2590816586893086	1.8321659372390644	-0.5205857304925477	-0.2509976278798731	1.704423583382675	-0.4804801816123297													-0.2759522805324176	1.9872224738389455	-0.4952795849834704	-0.2578168886504643	2.057056808351873	-0.48970176118506126	-0.2960530764686852	1.984934103962502	-0.4028613609910438	-0.3003965070115032	1.9155031475570903	-0.33782077719194464	-0.27240671822279566	1.8970369732452594	-0.41313752521281094	-0.2490029369245172	1.989618048910923	-0.5921210363673057	-0.23577795397721213	1.9104031728579884	-0.5963092821473346	-0.2270771282804289	1.857779722034277	-0.489256389901816
4	0.13333333333333333	-0.27568579163644175	1.8330226201269113	-0.45376358246195164	-0.2862283709522586	1.8307983329635995	-0.38775738226809553																-0.25973021487567205	1.8342442546967375	-0.5155103542724815	-0.25391915274025784	1.6977278886684628	-0.47182674586435064													-0.2757506046032393	1.9880628098357307	-0.48668201105669473	-0.26160979267412043	2.057706881005138	-0.47694568588810443	-0.2936929641429883	1.9868784156725094	-0.3962267988469531	-0.29467310482525183	1.911834230761648	-0.3435878132364547	-0.23750865616997388	1.9093802703661458	-0.4577099391010943	-0.2511740235124893	1.9915370227542948	-0.581843671457737	-0.23912934174616496	1.9093779979884928	-0.5886645821465722	-0.23847381976659815	1.8686425327780527	-0.4691598897853309
5	0.16666666666666666	-0.27806670256339144	1.8310289682904957	-0.45111875217701797	-0.2885684186366384	1.8284219494337886	-0.3850676613299623																-0.2622522558105788	1.832659756708057	-0.5129825119425101	-0.26116861904175576	1.6983416381714749	-0.4597112777874766													-0.2767172565248476	1.986573564756313	-0.48089990243704817	-0.26254322951626524	2.0575325423565	-0.4716098866380715	-0.296470790655208	1.9813038900560287	-0.38791512861191224	-0.2900501584824049	1.899199736758394	-0.3363181284017983	-0.24166663515216705	1.9110830459238173	-0.4300104484924337	-0.255263211096785	1.9899064500939165	-0.5770280859027698	-0.2463851987357001	1.909892491088244	-0.5854863301519196	-0.25530048244191456	1.8845008447676623	-0.46591486026468254
6	0.2	-0.27668983856027757	1.830311667889595	-0.44794682192195734	-0.28834559032257967	1.826748777296269	-0.3848568240023684																-0.26090435699175124	1.8317926455298859	-0.5098497079275897	-0.2643039527095493	1.6966020330192544	-0.46041738693092665													-0.27677533261558696	1.9864789372753995	-0.4806955389551867	-0.26333423239977266	2.058668295943478	-0.46607910572463496	-0.2954682903310963	1.9813146798727612	-0.38469633794704755	-0.2972006292439789	1.9032779219182923	-0.33401344843651376	-0.26522653911634575	1.9037345489925588	-0.39423914543829824	-0.2572804831928749	1.9896891109116368	-0.5747871821159551	-0.2463925561827194	1.9090175404798484	-0.5940295897619883	-0.24439388956709437	1.895998956920693	-0.4784007765450854
7	0.23333333333333334	-0.278081898981337	1.8302314500635253	-0.45117403323595057	-0.29152938663317557	1.8278705706753062	-0.38618778669041837																-0.2602866712730252	1.832246206571219	-0.5151078460440526	-0.2542972204442511	1.6971219048259873	-0.4715214178077769													-0.2777118962152734	1.9875641334138376	-0.47603411830949854	-0.2642654581639313	2.058703384215223	-0.4608078461817486	-0.2954476717786539	1.985095455823123	-0.3855080715856462	-0.30685039498325245	1.9055449614960953	-0.3242767123469074	-0.2741757601285555	1.9054137403721583	-0.3890796897556102	-0.2564457904963332	1.9897808316904784	-0.5716843784502895	-0.24611060442319024	1.9080885534333387	-0.6022056749046436	-0.25041743524552784	1.8968461069640066	-0.48905047295603166
8	0.26666666666666666	-0.2764357485754321	1.827853091388124	-0.4530993126656675	-0.2879373070550807	1.8243117522830905	-0.3898526160848649																-0.25940869796195365	1.8320988726817895	-0.520356957056516	-0.25259191251789465	1.6996103503897082	-0.48271930138495767													-0.277728494730331	1.9875617041502527	-0.4759064297255621	-0.26241223194909064	2.059999645209411	-0.4633994080862694	-0.2961764950012503	1.9850320110903297	-0.38029714941113424	-0.3094348013243896	1.9064738662347938	-0.31705955974508493	-0.26809928957007534	1.9012983248651925	-0.38600746069301173	-0.25829454941738056	1.990973367883449	-0.569537231901997	-0.24816026978096017	1.9101073934304005	-0.6088904461900839	-0.24534490164005893	1.8993319488106852	-0.49035696384448824
9	0.3	-0.2769685995426612	1.829029330658703	-0.4564753887076043	-0.2875138343305019	1.8254231583878278	-0.3901501079803326																-0.25909753910304867	1.832023998357081	-0.520503644407662	-0.25500903005106546	1.7006772118246811	-0.502467074370677													-0.2777375319799747	1.9875539438109906	-0.47599801421184323	-0.2623978623539451	2.0599799361930313	-0.46351463212324123	-0.2962747670938628	1.9839266114233125	-0.3802615843733758	-0.30769827141301076	1.9020552649522937	-0.3184332169973467	-0.27037559020458235	1.9042735800518114	-0.3935920067323155	-0.25925561943647163	1.9911715204733182	-0.5726986112471788	-0.2490762859520125	1.9104823715177928	-0.6121332154868462	-0.24450578894292835	1.9046475151810576	-0.49695929347758167
10	0.3333333333333333	-0.27613786807999274	1.8266245221735755	-0.4617355311411417	-0.2898240253124454	1.8221693692481735	-0.3962568050250569																-0.2601315767306827	1.8331680095283316	-0.5324784451407014	-0.25279037473112914	1.7001551142872886	-0.5314627133647738													-0.2778304519744257	1.9879992550155101	-0.4843294383229577	-0.2623227977915623	2.0587271770484836	-0.46314370921844417	-0.2953895806704209	1.985133207326969	-0.38556277288278623	-0.3078876459804845	1.9031452971506067	-0.3272370352074798	-0.2704789423602501	1.9080055048494533	-0.40291461356659214	-0.2591759483811804	1.991459554835619	-0.5810521190734306	-0.2531508365502067	1.911379809268423	-0.616653860085943	-0.2453992602438459	1.9090158310880072	-0.5092625244899224
